<mxfile host="app.diagrams.net" modified="2023-03-11T13:41:45.179Z" agent="5.0 (Macintosh; Intel Mac OS X 10_15_7) AppleWebKit/537.36 (KHTML, like Gecko) Chrome/111.0.0.0 Safari/537.36" etag="k01URP5z2qpAqg8im-52" version="21.0.6" type="github">
  <diagram name="第 1 页" id="tVrLRo3TgRgh7ebNb8Pi">
    <mxGraphModel dx="1306" dy="733" grid="1" gridSize="10" guides="1" tooltips="1" connect="1" arrows="1" fold="1" page="1" pageScale="1" pageWidth="827" pageHeight="1169" math="0" shadow="0">
      <root>
        <mxCell id="0" />
        <mxCell id="1" parent="0" />
        <mxCell id="vAGYJ-7boTbUxGWMo-4Z-1" value="" style="endArrow=none;html=1;rounded=0;" edge="1" parent="1">
          <mxGeometry x="0.5" y="40" width="50" height="50" relative="1" as="geometry">
            <mxPoint x="80" y="160" as="sourcePoint" />
            <mxPoint x="80" y="80" as="targetPoint" />
            <mxPoint as="offset" />
          </mxGeometry>
        </mxCell>
        <mxCell id="vAGYJ-7boTbUxGWMo-4Z-2" value="" style="endArrow=classic;html=1;rounded=0;" edge="1" parent="1">
          <mxGeometry width="50" height="50" relative="1" as="geometry">
            <mxPoint x="80" y="119" as="sourcePoint" />
            <mxPoint x="280" y="119" as="targetPoint" />
          </mxGeometry>
        </mxCell>
        <mxCell id="vAGYJ-7boTbUxGWMo-4Z-3" value="" style="endArrow=none;html=1;rounded=0;" edge="1" parent="1">
          <mxGeometry width="50" height="50" relative="1" as="geometry">
            <mxPoint x="280" y="160" as="sourcePoint" />
            <mxPoint x="280" y="80" as="targetPoint" />
          </mxGeometry>
        </mxCell>
        <mxCell id="vAGYJ-7boTbUxGWMo-4Z-4" value="" style="endArrow=classic;html=1;rounded=0;dashed=1;" edge="1" parent="1">
          <mxGeometry width="50" height="50" relative="1" as="geometry">
            <mxPoint x="280" y="120" as="sourcePoint" />
            <mxPoint x="480" y="120" as="targetPoint" />
          </mxGeometry>
        </mxCell>
        <mxCell id="vAGYJ-7boTbUxGWMo-4Z-5" value="开启小游戏" style="text;html=1;align=left;verticalAlign=middle;whiteSpace=wrap;rounded=0;" vertex="1" parent="1">
          <mxGeometry x="140" y="90" width="90" height="30" as="geometry" />
        </mxCell>
        <mxCell id="vAGYJ-7boTbUxGWMo-4Z-6" value="开启投屏（可选）" style="text;html=1;strokeColor=none;fillColor=none;align=center;verticalAlign=middle;whiteSpace=wrap;rounded=0;dashed=1;" vertex="1" parent="1">
          <mxGeometry x="330" y="90" width="120" height="30" as="geometry" />
        </mxCell>
        <mxCell id="vAGYJ-7boTbUxGWMo-4Z-7" value="" style="endArrow=none;html=1;rounded=0;" edge="1" parent="1">
          <mxGeometry width="50" height="50" relative="1" as="geometry">
            <mxPoint x="480" y="320" as="sourcePoint" />
            <mxPoint x="480" y="120" as="targetPoint" />
          </mxGeometry>
        </mxCell>
        <mxCell id="vAGYJ-7boTbUxGWMo-4Z-8" value="&lt;b&gt;&lt;font color=&quot;#ff3333&quot;&gt;快手server&lt;/font&gt;&lt;/b&gt;&lt;br&gt;发送游戏开始消息 —&amp;gt; mmu消费" style="text;html=1;align=left;verticalAlign=middle;resizable=0;points=[];autosize=1;strokeColor=none;fillColor=none;" vertex="1" parent="1">
          <mxGeometry x="100" y="185" width="200" height="40" as="geometry" />
        </mxCell>
        <mxCell id="vAGYJ-7boTbUxGWMo-4Z-9" value="&lt;div style=&quot;text-align: left;&quot;&gt;&lt;b style=&quot;background-color: initial;&quot;&gt;&lt;font color=&quot;#ff3333&quot;&gt;快手server&lt;/font&gt;&lt;/b&gt;&lt;/div&gt;设置业务互斥&amp;nbsp;&lt;span style=&quot;text-align: left;&quot;&gt;&amp;nbsp;—&amp;gt; 业务互斥服务&lt;/span&gt;" style="text;html=1;align=center;verticalAlign=middle;resizable=0;points=[];autosize=1;strokeColor=none;fillColor=none;" vertex="1" parent="1">
          <mxGeometry x="280" y="132.5" width="200" height="40" as="geometry" />
        </mxCell>
        <mxCell id="vAGYJ-7boTbUxGWMo-4Z-10" value="&lt;b&gt;&lt;font color=&quot;#ff3333&quot;&gt;第三方&lt;/font&gt;&lt;/b&gt;&lt;br&gt;调用开启游戏接口" style="text;html=1;align=left;verticalAlign=middle;resizable=0;points=[];autosize=1;strokeColor=none;fillColor=none;" vertex="1" parent="1">
          <mxGeometry x="100" y="132.5" width="120" height="40" as="geometry" />
        </mxCell>
        <mxCell id="vAGYJ-7boTbUxGWMo-4Z-11" value="" style="endArrow=classic;html=1;rounded=0;" edge="1" parent="1">
          <mxGeometry width="50" height="50" relative="1" as="geometry">
            <mxPoint x="480" y="280" as="sourcePoint" />
            <mxPoint x="800" y="280" as="targetPoint" />
          </mxGeometry>
        </mxCell>
        <mxCell id="vAGYJ-7boTbUxGWMo-4Z-12" value="&lt;b style=&quot;background-color: initial;&quot;&gt;&lt;font color=&quot;#ff3333&quot;&gt;快手client&lt;/font&gt;&lt;/b&gt;&lt;br&gt;投屏采集+相机采集合流—&amp;gt; 推送源站" style="text;html=1;align=left;verticalAlign=middle;resizable=0;points=[];autosize=1;strokeColor=none;fillColor=none;" vertex="1" parent="1">
          <mxGeometry x="529" y="290" width="220" height="40" as="geometry" />
        </mxCell>
        <mxCell id="vAGYJ-7boTbUxGWMo-4Z-13" value="" style="edgeStyle=orthogonalEdgeStyle;rounded=0;orthogonalLoop=1;jettySize=auto;html=1;fontColor=#FF3333;entryX=0.093;entryY=0.014;entryDx=0;entryDy=0;entryPerimeter=0;" edge="1" parent="1" source="vAGYJ-7boTbUxGWMo-4Z-14" target="vAGYJ-7boTbUxGWMo-4Z-31">
          <mxGeometry relative="1" as="geometry">
            <Array as="points">
              <mxPoint x="739" y="390" />
              <mxPoint x="550" y="390" />
            </Array>
          </mxGeometry>
        </mxCell>
        <mxCell id="vAGYJ-7boTbUxGWMo-4Z-14" value="&lt;b style=&quot;background-color: initial;&quot;&gt;&lt;font color=&quot;#ff3333&quot;&gt;快手server&lt;/font&gt;&lt;/b&gt;&lt;br&gt;点赞消息+送礼消息+评论消息—&amp;gt; 推送第三方" style="text;html=1;align=left;verticalAlign=middle;resizable=0;points=[];autosize=1;strokeColor=none;fillColor=none;" vertex="1" parent="1">
          <mxGeometry x="529" y="340" width="260" height="40" as="geometry" />
        </mxCell>
        <mxCell id="vAGYJ-7boTbUxGWMo-4Z-15" value="" style="endArrow=none;html=1;rounded=0;" edge="1" parent="1">
          <mxGeometry x="-0.1667" y="-11" width="50" height="50" relative="1" as="geometry">
            <mxPoint x="800" y="400" as="sourcePoint" />
            <mxPoint x="800" y="280" as="targetPoint" />
            <mxPoint as="offset" />
          </mxGeometry>
        </mxCell>
        <mxCell id="vAGYJ-7boTbUxGWMo-4Z-16" value="" style="endArrow=none;html=1;rounded=0;" edge="1" parent="1">
          <mxGeometry width="50" height="50" relative="1" as="geometry">
            <mxPoint x="800" y="480" as="sourcePoint" />
            <mxPoint x="800" y="400" as="targetPoint" />
          </mxGeometry>
        </mxCell>
        <mxCell id="vAGYJ-7boTbUxGWMo-4Z-17" value="" style="endArrow=classic;html=1;rounded=0;dashed=1;" edge="1" parent="1">
          <mxGeometry width="50" height="50" relative="1" as="geometry">
            <mxPoint x="800" y="440" as="sourcePoint" />
            <mxPoint x="1000" y="440" as="targetPoint" />
          </mxGeometry>
        </mxCell>
        <mxCell id="vAGYJ-7boTbUxGWMo-4Z-18" value="" style="endArrow=none;html=1;rounded=0;" edge="1" parent="1">
          <mxGeometry width="50" height="50" relative="1" as="geometry">
            <mxPoint x="1000" y="480" as="sourcePoint" />
            <mxPoint x="1000" y="400" as="targetPoint" />
          </mxGeometry>
        </mxCell>
        <mxCell id="vAGYJ-7boTbUxGWMo-4Z-19" value="" style="endArrow=classic;html=1;rounded=0;" edge="1" parent="1">
          <mxGeometry width="50" height="50" relative="1" as="geometry">
            <mxPoint x="1000" y="439" as="sourcePoint" />
            <mxPoint x="1200" y="439" as="targetPoint" />
          </mxGeometry>
        </mxCell>
        <mxCell id="vAGYJ-7boTbUxGWMo-4Z-20" value="关闭小游戏" style="text;html=1;strokeColor=none;fillColor=none;align=center;verticalAlign=middle;whiteSpace=wrap;rounded=0;" vertex="1" parent="1">
          <mxGeometry x="1060" y="410" width="90" height="30" as="geometry" />
        </mxCell>
        <mxCell id="vAGYJ-7boTbUxGWMo-4Z-21" value="关闭投屏（可选）" style="text;html=1;strokeColor=none;fillColor=none;align=center;verticalAlign=middle;whiteSpace=wrap;rounded=0;dashed=1;" vertex="1" parent="1">
          <mxGeometry x="850" y="410" width="120" height="30" as="geometry" />
        </mxCell>
        <mxCell id="vAGYJ-7boTbUxGWMo-4Z-22" value="&lt;b&gt;&lt;font color=&quot;#ff3333&quot;&gt;快手server&lt;/font&gt;&lt;/b&gt;&lt;br&gt;标记直播开始游戏 —&amp;gt; redis" style="text;html=1;align=left;verticalAlign=middle;resizable=0;points=[];autosize=1;strokeColor=none;fillColor=none;" vertex="1" parent="1">
          <mxGeometry x="100" y="237.5" width="170" height="40" as="geometry" />
        </mxCell>
        <mxCell id="vAGYJ-7boTbUxGWMo-4Z-23" value="&lt;b style=&quot;background-color: initial;&quot;&gt;&lt;font color=&quot;#ff3333&quot;&gt;快手server&lt;/font&gt;&lt;/b&gt;&lt;br&gt;发送游戏关闭消息 —&amp;gt; mmu消费" style="text;html=1;align=left;verticalAlign=middle;resizable=0;points=[];autosize=1;strokeColor=none;fillColor=none;" vertex="1" parent="1">
          <mxGeometry x="1020" y="492.5" width="200" height="40" as="geometry" />
        </mxCell>
        <mxCell id="vAGYJ-7boTbUxGWMo-4Z-24" value="&lt;b&gt;&lt;font color=&quot;#ff3333&quot;&gt;第三方&lt;/font&gt;&lt;/b&gt;&lt;br&gt;调用关闭游戏接口" style="text;html=1;align=left;verticalAlign=middle;resizable=0;points=[];autosize=1;strokeColor=none;fillColor=none;" vertex="1" parent="1">
          <mxGeometry x="1020" y="440" width="120" height="40" as="geometry" />
        </mxCell>
        <mxCell id="vAGYJ-7boTbUxGWMo-4Z-25" value="&lt;b style=&quot;background-color: initial;&quot;&gt;&lt;font color=&quot;#ff3333&quot;&gt;快手server&lt;/font&gt;&lt;/b&gt;&lt;br&gt;标记直播关闭游戏 —&amp;gt; redis" style="text;html=1;align=left;verticalAlign=middle;resizable=0;points=[];autosize=1;strokeColor=none;fillColor=none;" vertex="1" parent="1">
          <mxGeometry x="1020" y="545" width="170" height="40" as="geometry" />
        </mxCell>
        <mxCell id="vAGYJ-7boTbUxGWMo-4Z-26" value="&lt;div style=&quot;text-align: left;&quot;&gt;&lt;b style=&quot;background-color: initial;&quot;&gt;&lt;font color=&quot;#ff3333&quot;&gt;快手server&lt;/font&gt;&lt;/b&gt;&lt;/div&gt;结束业务互斥&amp;nbsp;&lt;span style=&quot;text-align: left;&quot;&gt;&amp;nbsp;—&amp;gt; 业务互斥服务&lt;/span&gt;" style="text;html=1;align=center;verticalAlign=middle;resizable=0;points=[];autosize=1;strokeColor=none;fillColor=none;" vertex="1" parent="1">
          <mxGeometry x="1010" y="595" width="200" height="40" as="geometry" />
        </mxCell>
        <mxCell id="vAGYJ-7boTbUxGWMo-4Z-27" value="开始游戏阶段" style="text;html=1;strokeColor=#d79b00;fillColor=#ffe6cc;align=center;verticalAlign=middle;whiteSpace=wrap;rounded=0;" vertex="1" parent="1">
          <mxGeometry x="230" y="40" width="100" height="30" as="geometry" />
        </mxCell>
        <mxCell id="vAGYJ-7boTbUxGWMo-4Z-28" value="游戏进行中" style="text;html=1;strokeColor=#d79b00;fillColor=#ffe6cc;align=center;verticalAlign=middle;whiteSpace=wrap;rounded=0;" vertex="1" parent="1">
          <mxGeometry x="574" y="237.5" width="110" height="30" as="geometry" />
        </mxCell>
        <mxCell id="vAGYJ-7boTbUxGWMo-4Z-29" value="结束游戏阶段" style="text;html=1;strokeColor=#d79b00;fillColor=#ffe6cc;align=center;verticalAlign=middle;whiteSpace=wrap;rounded=0;" vertex="1" parent="1">
          <mxGeometry x="950" y="360" width="100" height="30" as="geometry" />
        </mxCell>
        <mxCell id="vAGYJ-7boTbUxGWMo-4Z-30" value="" style="edgeStyle=orthogonalEdgeStyle;rounded=0;orthogonalLoop=1;jettySize=auto;html=1;fontColor=#FF3333;entryX=-0.002;entryY=0.839;entryDx=0;entryDy=0;entryPerimeter=0;" edge="1" parent="1" source="vAGYJ-7boTbUxGWMo-4Z-31" target="vAGYJ-7boTbUxGWMo-4Z-12">
          <mxGeometry relative="1" as="geometry">
            <mxPoint x="609" y="530" as="targetPoint" />
            <Array as="points">
              <mxPoint x="709" y="460" />
              <mxPoint x="500" y="460" />
              <mxPoint x="500" y="324" />
            </Array>
          </mxGeometry>
        </mxCell>
        <mxCell id="vAGYJ-7boTbUxGWMo-4Z-31" value="&lt;b&gt;&lt;font color=&quot;#ff3333&quot;&gt;第三方&lt;/font&gt;&lt;/b&gt;&lt;br&gt;根据互动消息数据生产动效 —&amp;gt; 投屏" style="text;html=1;align=left;verticalAlign=middle;resizable=0;points=[];autosize=1;strokeColor=none;fillColor=none;" vertex="1" parent="1">
          <mxGeometry x="529" y="410" width="220" height="40" as="geometry" />
        </mxCell>
        <mxCell id="vAGYJ-7boTbUxGWMo-4Z-32" value="&lt;div style=&quot;text-align: left;&quot;&gt;&lt;b style=&quot;background-color: initial;&quot;&gt;&lt;font color=&quot;#ff3333&quot;&gt;快手server&lt;/font&gt;&lt;/b&gt;&lt;/div&gt;结束业务互斥&amp;nbsp;&lt;span style=&quot;text-align: left;&quot;&gt;&amp;nbsp;—&amp;gt; 业务互斥服务&lt;/span&gt;" style="text;html=1;align=center;verticalAlign=middle;resizable=0;points=[];autosize=1;strokeColor=none;fillColor=none;" vertex="1" parent="1">
          <mxGeometry x="800" y="452.5" width="200" height="40" as="geometry" />
        </mxCell>
      </root>
    </mxGraphModel>
  </diagram>
</mxfile>
